# xmcd
#
# Track frame offsets:
# 150
# 18024
# 34819
# 52995
# 72058
# 91723
# 110134
# 129184
# 148678
# 169352
# 184912
# 207949
# 230380
# 249034
#
# Disc length: 3571 seconds
#
# Revision: 2
# Processed by: cddbd v1.4PL0 Copyright (c) Steve Scherf et al.
# Submitted via: Axialis_AX_CDPlayer 2.6
#
DISCID=b30df10e
DTITLE=ALEX BARONI - SEMPLICEMENTE
DYEAR=1900
DGENRE=
TTITLE0=La distanza di un amore
TTITLE1=Binario
TTITLE2=Speriamo
TTITLE3=Onde
TTITLE4=Dimmi che ci sei
TTITLE5=Pavimento liquido
TTITLE6=Cambiare
TTITLE7=Sei tu o lei (quello che voglio)
TTITLE8=Ce la farò
TTITLE9=Scrivi qualcosa per me
TTITLE10=Male che fa male
TTITLE11=Signora fantasia
TTITLE12=La voce della luna
TTITLE13=Dedicato a te
EXTD=
EXTT0=
EXTT1=
EXTT2=
EXTT3=
EXTT4=
EXTT5=
EXTT6=
EXTT7=
EXTT8=
EXTT9=
EXTT10=
EXTT11=
EXTT12=
EXTT13=
PLAYORDER=
